<mxfile host="app.diagrams.net" modified="2024-04-02T10:27:01.036Z" agent="Mozilla/5.0 (Windows NT 10.0; Win64; x64) AppleWebKit/537.36 (KHTML, like Gecko) Chrome/121.0.0.0 Safari/537.36 OPR/107.0.0.0 (Edition Yx GX)" version="24.2.0" etag="MpQ15OapcU_wy3hlGAWf" type="github">
  <diagram name="Страница — 1" id="wBGk021xUFONunowpKWH">
    <mxGraphModel>
      <root>
        <mxCell id="0" />
        <mxCell id="1" parent="0" />
      </root>
    </mxGraphModel>
  </diagram>
</mxfile>
